<?xml version="1.0" encoding="UTF-8"?>
<svg id="Layer_2" data-name="Layer 2" xmlns="http://www.w3.org/2000/svg" viewBox="0 0 836.2 167.61">
  <g id="Layer_1-2" data-name="Layer 1">
    <g>
      <g>
        <rect y="7.7" width="836.2" height="88.72" fill="none"/>
        <path d="M77.66,88.44c-1.69,2.49-3.37,4.29-5.06,5.39-1.69,1.1-3.92,1.65-6.71,1.65-3.01,0-5.48-.88-7.43-2.64-1.94-1.76-3.39-4.84-4.34-9.24l-2.42-11c-.88-3.81-1.71-6.75-2.48-8.8-.77-2.05-1.92-3.7-3.46-4.95-1.54-1.25-3.7-1.87-6.49-1.87h-10.45v25.3c0,2.79.22,4.8.66,6.05.44,1.25,1.27,2.09,2.48,2.53s3.13.73,5.77.88v2.2c-3.37-.22-8.03-.33-13.97-.33-6.31,0-11,.11-14.08.33v-2.2c2.64-.15,4.56-.44,5.77-.88s2.04-1.28,2.48-2.53c.44-1.25.66-3.26.66-6.05V27.72c0-2.79-.22-4.8-.66-6.05-.44-1.25-1.27-2.09-2.48-2.53-1.21-.44-3.14-.73-5.77-.88v-2.2c3.08.22,7.55.33,13.42.33l11.88-.11c1.39-.07,2.97-.11,4.73-.11,8.51,0,15.05,1.78,19.64,5.33,4.58,3.56,6.88,8.16,6.88,13.81,0,2.86-.68,5.74-2.04,8.63-1.36,2.9-3.63,5.5-6.82,7.81s-7.35,3.87-12.49,4.68l1.32.22c4.84.81,8.36,2.27,10.56,4.4,2.2,2.13,3.81,5.5,4.84,10.12l2.75,11.22c.73,3.37,1.5,5.72,2.31,7.04.81,1.32,1.91,1.98,3.3,1.98,1.25,0,2.29-.33,3.14-.99.84-.66,1.81-1.72,2.92-3.19l1.65,1.21ZM31.84,19.03c-1.14.51-1.93,1.43-2.37,2.75-.44,1.32-.66,3.3-.66,5.94v27.06h7.37c7.26,0,12.25-1.61,14.96-4.84,2.71-3.23,4.07-7.7,4.07-13.42,0-6.01-1.43-10.56-4.29-13.64-2.86-3.08-7.52-4.62-13.97-4.62-2.27,0-3.98.26-5.11.77Z" fill="#fff"/>
        <path d="M135.4,18.26c-2.64.15-4.56.44-5.77.88-1.21.44-2.04,1.28-2.48,2.53-.44,1.25-.66,3.26-.66,6.05v54.56c0,2.79.22,4.8.66,6.05.44,1.25,1.27,2.09,2.48,2.53s3.13.73,5.77.88v2.2c-3.37-.22-8.03-.33-13.97-.33-6.31,0-11,.11-14.08.33v-2.2c2.64-.15,4.56-.44,5.77-.88s2.04-1.28,2.48-2.53c.44-1.25.66-3.26.66-6.05V27.72c0-2.79-.22-4.8-.66-6.05-.44-1.25-1.27-2.09-2.48-2.53-1.21-.44-3.14-.73-5.77-.88v-2.2c3.08.22,7.77.33,14.08.33,5.87,0,10.52-.11,13.97-.33v2.2Z" fill="#fff"/>
        <path d="M236.49,16.06v2.2c-3.67.88-6.56,4.07-8.69,9.57l-25.85,66.66h-1.76l-26.84-69.19c-1.76-4.55-4.29-6.89-7.59-7.04v-2.2c2.93.22,6.86.33,11.77.33,6.31,0,11-.11,14.08-.33v2.2c-2.79.15-4.79.5-6,1.05-1.21.55-1.81,1.56-1.81,3.02,0,1.25.44,2.97,1.32,5.17l19.91,52.91,17.93-46.53c1.47-3.96,2.2-6.97,2.2-9.02,0-2.27-.79-3.92-2.37-4.95-1.58-1.03-3.98-1.58-7.21-1.65v-2.2c4.18.22,8.4.33,12.65.33,3.3,0,6.05-.11,8.25-.33Z" fill="#fff"/>
        <path d="M323.83,93.94c-4.99-.22-13.38-.33-25.19-.33-14.08,0-24.71.11-31.9.33v-2.2c2.64-.15,4.56-.44,5.77-.88,1.21-.44,2.04-1.28,2.48-2.53.44-1.25.66-3.26.66-6.05V27.72c0-2.79-.22-4.8-.66-6.05-.44-1.25-1.26-2.09-2.48-2.53-1.21-.44-3.13-.73-5.77-.88v-2.2c7.19.22,17.82.33,31.9.33,10.78,0,18.44-.11,22.99-.33-.51,4.84-.77,9.17-.77,12.98,0,2.86.11,5.13.33,6.82h-2.53c-.51-4.77-1.17-8.3-1.98-10.61-.81-2.31-2.16-4-4.07-5.06-1.91-1.06-4.8-1.6-8.69-1.6h-9.13c-2.64,0-4.56.2-5.78.6-1.21.4-2.03,1.23-2.47,2.48-.44,1.25-.66,3.26-.66,6.05v25.96h7.26c2.57,0,4.55-.61,5.94-1.82,1.39-1.21,2.33-2.64,2.8-4.29.48-1.65.86-3.72,1.16-6.21l.33-2.2h2.53c-.22,3.08-.33,6.53-.33,10.34v5.28c0,3.74.22,8.95.66,15.62h-2.53c-.07-.51-.29-2.29-.66-5.33-.37-3.04-1.38-5.33-3.03-6.88-1.65-1.54-3.94-2.31-6.88-2.31h-7.26v26.4c0,2.79.22,4.8.66,6.05.44,1.25,1.26,2.07,2.47,2.48,1.21.4,3.14.6,5.78.6h8.03c4.55,0,8.01-.6,10.39-1.82,2.38-1.21,4.12-3.15,5.23-5.83,1.1-2.68,1.91-6.62,2.42-11.83h2.53c-.22,1.98-.33,4.62-.33,7.92,0,4.18.26,8.87.77,14.08Z" fill="#fff"/>
        <path d="M428.11,88.44c-1.69,2.49-3.37,4.29-5.06,5.39-1.69,1.1-3.92,1.65-6.71,1.65-3.01,0-5.48-.88-7.42-2.64-1.94-1.76-3.39-4.84-4.35-9.24l-2.42-11c-.88-3.81-1.71-6.75-2.47-8.8-.77-2.05-1.92-3.7-3.46-4.95-1.54-1.25-3.7-1.87-6.49-1.87h-10.45v25.3c0,2.79.22,4.8.66,6.05.44,1.25,1.26,2.09,2.47,2.53,1.21.44,3.14.73,5.78.88v2.2c-3.37-.22-8.03-.33-13.97-.33-6.31,0-11,.11-14.08.33v-2.2c2.64-.15,4.56-.44,5.77-.88,1.21-.44,2.04-1.28,2.48-2.53.44-1.25.66-3.26.66-6.05V27.72c0-2.79-.22-4.8-.66-6.05-.44-1.25-1.26-2.09-2.48-2.53-1.21-.44-3.13-.73-5.77-.88v-2.2c3.08.22,7.55.33,13.42.33l11.88-.11c1.39-.07,2.97-.11,4.73-.11,8.51,0,15.05,1.78,19.64,5.33,4.58,3.56,6.88,8.16,6.88,13.81,0,2.86-.68,5.74-2.04,8.63-1.36,2.9-3.63,5.5-6.82,7.81-3.19,2.31-7.35,3.87-12.48,4.68l1.32.22c4.84.81,8.36,2.27,10.56,4.4,2.2,2.13,3.81,5.5,4.84,10.12l2.75,11.22c.73,3.37,1.5,5.72,2.31,7.04.81,1.32,1.91,1.98,3.3,1.98,1.25,0,2.29-.33,3.13-.99.84-.66,1.81-1.72,2.92-3.19l1.65,1.21ZM382.3,19.03c-1.14.51-1.92,1.43-2.37,2.75-.44,1.32-.66,3.3-.66,5.94v27.06h7.37c7.26,0,12.25-1.61,14.96-4.84,2.71-3.23,4.07-7.7,4.07-13.42,0-6.01-1.43-10.56-4.29-13.64-2.86-3.08-7.52-4.62-13.97-4.62-2.27,0-3.98.26-5.12.77Z" fill="#fff"/>
        <path d="M557.69,16.39c3.08,1.25,6.09,3.01,9.02,5.28.81.66,1.5.99,2.09.99,1.47,0,2.42-2.2,2.86-6.6h2.53c-.29,4.77-.44,13.2-.44,25.3h-2.53c-.81-4.77-1.54-8.19-2.2-10.29-.66-2.09-1.76-4.09-3.3-5.99-2.2-2.86-5-5.01-8.42-6.44-3.41-1.43-7.09-2.15-11.05-2.15-4.77,0-8.93,1.58-12.48,4.73-3.56,3.15-6.33,7.65-8.31,13.48-1.98,5.83-2.97,12.67-2.97,20.51s1.06,14.85,3.19,20.57c2.13,5.72,5.08,10.06,8.86,13.03,3.78,2.97,8.05,4.46,12.82,4.46,3.67,0,7.22-.7,10.67-2.09,3.45-1.39,6.16-3.48,8.14-6.27,1.47-2.05,2.53-4.25,3.19-6.6.66-2.35,1.28-5.94,1.87-10.78h2.53c0,12.61.15,21.41.44,26.4h-2.53c-.22-2.35-.53-4.02-.93-5-.4-.99-.97-1.49-1.71-1.49-.59,0-1.36.29-2.31.88-3.3,2.35-6.45,4.12-9.46,5.33-3.01,1.21-6.64,1.81-10.89,1.81-6.97,0-13.07-1.58-18.32-4.73-5.24-3.15-9.31-7.72-12.21-13.69-2.9-5.98-4.34-13.11-4.34-21.4s1.49-15.22,4.46-21.45c2.97-6.23,7.11-11.07,12.43-14.52,5.32-3.45,11.35-5.17,18.09-5.17,4.4,0,8.14.62,11.22,1.87Z" fill="#fff"/>
        <path d="M640.41,18.26c-2.64.15-4.56.44-5.78.88-1.21.44-2.03,1.28-2.47,2.53-.44,1.25-.66,3.26-.66,6.05v54.56c0,2.79.22,4.8.66,6.05.44,1.25,1.26,2.09,2.47,2.53,1.21.44,3.14.73,5.78.88v2.2c-3.37-.22-8.03-.33-13.97-.33-6.31,0-11,.11-14.08.33v-2.2c2.64-.15,4.56-.44,5.77-.88,1.21-.44,2.04-1.28,2.48-2.53.44-1.25.66-3.26.66-6.05V27.72c0-2.79-.22-4.8-.66-6.05-.44-1.25-1.26-2.09-2.48-2.53-1.21-.44-3.13-.73-5.77-.88v-2.2c3.08.22,7.77.33,14.08.33,5.87,0,10.52-.11,13.97-.33v2.2Z" fill="#fff"/>
        <path d="M735.78,30.14c0,3.67.11,6.67.33,9.02h-2.53c-.59-5.65-1.32-9.85-2.2-12.6s-2.42-4.77-4.62-6.05c-2.2-1.28-5.57-1.93-10.12-1.93h-5.94v62.59c0,3.08.29,5.32.88,6.71.59,1.39,1.61,2.35,3.08,2.86,1.47.51,3.85.84,7.15.99v2.2c-3.81-.22-9.2-.33-16.17-.33-7.33,0-12.76.11-16.28.33v-2.2c3.3-.15,5.68-.48,7.15-.99,1.47-.51,2.49-1.47,3.08-2.86.59-1.39.88-3.63.88-6.71V18.59h-5.94c-4.55,0-7.92.64-10.12,1.93-2.2,1.28-3.74,3.3-4.62,6.05s-1.61,6.95-2.2,12.6h-2.53c.22-2.35.33-5.35.33-9.02,0-4.18-.26-8.87-.77-14.08,6.09.22,16.43.33,31.02.33s24.82-.11,30.91-.33c-.51,5.21-.77,9.9-.77,14.08Z" fill="#fff"/>
        <path d="M830.82,16.06v2.2c-1.47.37-2.9,1.3-4.29,2.81-1.39,1.5-2.9,3.83-4.51,6.98l-17.27,34.21v20.02c0,2.79.22,4.8.66,6.05.44,1.25,1.27,2.09,2.48,2.53s3.13.73,5.77.88v2.2c-3.37-.22-8.03-.33-13.97-.33-6.31,0-11,.11-14.08.33v-2.2c2.64-.15,4.57-.44,5.78-.88s2.04-1.28,2.47-2.53c.44-1.25.66-3.26.66-6.05v-16.5l-22.33-41.25c-1.32-2.42-2.47-4.05-3.46-4.9-.99-.84-1.96-1.26-2.92-1.26v-2.31c2.86.22,6.09.33,9.68.33,7.11,0,12.25-.11,15.4-.33v2.31c-5.13,0-7.7,1.39-7.7,4.18,0,1.1.37,2.38,1.1,3.85l18.26,35.09,14.08-27.94c1.98-3.89,2.97-7.04,2.97-9.46,0-2.05-.81-3.52-2.42-4.4-1.61-.88-4.03-1.36-7.26-1.43v-2.2c4.18.22,8.4.33,12.65.33,3.3,0,6.05-.11,8.25-.33Z" fill="#fff"/>
      </g>
      <g>
        <rect x="42.4" y="132.12" width="751.39" height="30.74" fill="none"/>
        <path d="M183.02,133.75l10.47,24.07h-2.86l-2.65-6.32h-12.31l-2.65,6.32h-2.86l10.47-24.07h2.38ZM176.6,149.25h10.44l-5.2-12.65-5.24,12.65Z" fill="#fff"/>
        <path d="M227.29,136.06l-2.14,1.67c-1.09-1.6-2.62-2.35-4.66-2.35-2.89,0-5.13,1.67-5.13,4.35,0,2.21,1.43,3.5,4.42,4.45,4.49,1.43,7.89,2.58,7.92,7.24.03,4.01-3.67,7-7.96,7-3.09,0-5.81-1.22-7.55-3.57l2.21-1.6c1.05,1.8,2.96,2.92,5.44,2.92,2.72,0,5.2-1.8,5.2-4.39,0-2.35-1.26-3.64-4.96-4.76-4.11-1.29-7.38-2.45-7.38-7.07,0-4.25,3.43-6.83,7.79-6.83,3.09,0,5.17,1.02,6.8,2.92Z" fill="#fff"/>
        <path d="M263.2,136.06l-2.14,1.67c-1.09-1.6-2.62-2.35-4.66-2.35-2.89,0-5.13,1.67-5.13,4.35,0,2.21,1.43,3.5,4.42,4.45,4.49,1.43,7.89,2.58,7.92,7.24.03,4.01-3.67,7-7.96,7-3.09,0-5.81-1.22-7.55-3.57l2.21-1.6c1.05,1.8,2.96,2.92,5.44,2.92,2.72,0,5.2-1.8,5.2-4.39,0-2.35-1.26-3.64-4.96-4.76-4.11-1.29-7.38-2.45-7.38-7.07,0-4.25,3.43-6.83,7.79-6.83,3.09,0,5.17,1.02,6.8,2.92Z" fill="#fff"/>
        <path d="M300.49,133.75v2.24h-12.48v8.19h11.66v2.24h-11.66v9.15h12.88v2.24h-15.33v-24.07h14.92Z" fill="#fff"/>
        <path d="M338.5,133.75v2.24h-8.06v21.83h-2.45v-21.83h-8.06v-2.24h18.56Z" fill="#fff"/>
        <path d="M395.28,133.75l10.47,24.07h-2.86l-2.65-6.32h-12.31l-2.65,6.32h-2.86l10.47-24.07h2.38ZM388.86,149.25h10.44l-5.2-12.65-5.24,12.65Z" fill="#fff"/>
        <path d="M433.64,133.75c7.24,0,12.68,5.07,12.68,12.03s-5.58,12.03-12.51,12.03h-8.12v-24.07h7.96ZM432.92,155.58c6.63,0,10.74-4.22,10.74-9.79s-4.25-9.79-10.61-9.79h-4.93v19.58h4.79Z" fill="#fff"/>
        <path d="M467.57,133.75l7.65,20.4h.07l7.89-20.4h2.65l-9.38,24.07h-2.45l-9.14-24.07h2.72Z" fill="#fff"/>
        <path d="M508.44,133.75v24.07h-2.45v-24.07h2.45Z" fill="#fff"/>
        <path d="M545.5,136.06l-2.14,1.67c-1.09-1.6-2.62-2.35-4.66-2.35-2.89,0-5.13,1.67-5.13,4.35,0,2.21,1.43,3.5,4.42,4.45,4.49,1.43,7.89,2.58,7.92,7.24.03,4.01-3.67,7-7.96,7-3.09,0-5.81-1.22-7.55-3.57l2.21-1.6c1.05,1.8,2.96,2.92,5.44,2.92,2.72,0,5.2-1.8,5.2-4.39,0-2.35-1.26-3.64-4.96-4.76-4.11-1.29-7.38-2.45-7.38-7.07,0-4.25,3.43-6.83,7.79-6.83,3.09,0,5.17,1.02,6.8,2.92Z" fill="#fff"/>
        <path d="M591.33,145.79c0,7.21-5.37,12.65-12.54,12.65s-12.54-5.47-12.54-12.65,5.34-12.65,12.54-12.65,12.54,5.47,12.54,12.65ZM578.78,156.19c5.95,0,9.89-4.62,9.89-10.4s-4.04-10.4-9.93-10.4-9.86,4.52-9.86,10.4,4.08,10.4,9.89,10.4Z" fill="#fff"/>
        <path d="M620.81,133.75c4.76,0,7.75,2.21,7.75,6.43,0,3.4-2.18,5.85-6.12,6.22l6.9,11.42h-2.99l-6.6-11.19h-4.08v11.19h-2.45v-24.07h7.58ZM620.2,144.39c3.64,0,5.71-1.5,5.71-4.22s-2.18-4.18-5.71-4.18h-4.52v8.4h4.52Z" fill="#fff"/>
        <path d="M663.92,136.06l-2.14,1.67c-1.09-1.6-2.62-2.35-4.66-2.35-2.89,0-5.13,1.67-5.13,4.35,0,2.21,1.43,3.5,4.42,4.45,4.49,1.43,7.89,2.58,7.92,7.24.03,4.01-3.67,7-7.96,7-3.09,0-5.81-1.22-7.55-3.57l2.21-1.6c1.05,1.8,2.96,2.92,5.44,2.92,2.72,0,5.2-1.8,5.2-4.39,0-2.35-1.26-3.64-4.96-4.76-4.11-1.29-7.38-2.45-7.38-7.07,0-4.25,3.43-6.83,7.79-6.83,3.09,0,5.17,1.02,6.8,2.92Z" fill="#fff"/>
      </g>
      <line x1="708.25" y1="147.49" x2="830.82" y2="147.49" fill="#fff" stroke="#fff" stroke-miterlimit="10"/>
      <line x1="9.67" y1="147.49" x2="132.24" y2="147.49" fill="#fff" stroke="#fff" stroke-miterlimit="10"/>
    </g>
  </g>
</svg>